<svg width="96" height="30" viewBox="0 0 96 30" fill="none" xmlns="http://www.w3.org/2000/svg">
<path d="M9.32672 5.18359H13.2642L22.1236 23.5H18.2212L16.7564 20.418H6.05719L4.63922 23.5H0.725155L9.32672 5.18359ZM15.2916 17.3594L11.3306 9.03906L7.47515 17.3594H15.2916ZM23.7825 5.18359H27.5208V23.5H23.7825V5.18359ZM31.5352 5.18359H35.25V9.96484H46.6406V5.18359H50.3672V23.5H46.6406V13.1406H35.25V23.5H31.5352V5.18359ZM54.1589 5.18359H57.8737V15.2734C57.8737 16.1016 57.987 16.8398 58.2136 17.4883C58.4402 18.1289 58.7761 18.6719 59.2214 19.1172C59.6745 19.5625 60.2331 19.9023 60.8972 20.1367C61.5612 20.3633 62.3347 20.4766 63.2175 20.4766C64.0925 20.4766 64.862 20.3633 65.5261 20.1367C66.198 19.9023 66.7566 19.5625 67.2019 19.1172C67.655 18.6719 67.9948 18.1289 68.2214 17.4883C68.448 16.8398 68.5612 16.1016 68.5612 15.2734V5.18359H72.2761V15.7188C72.2761 16.9219 72.073 18.0156 71.6667 19C71.2605 19.9844 70.6706 20.8281 69.8972 21.5312C69.1237 22.2344 68.1745 22.7773 67.0495 23.1602C65.9323 23.543 64.655 23.7344 63.2175 23.7344C61.78 23.7344 60.4987 23.543 59.3737 23.1602C58.2566 22.7773 57.3112 22.2344 56.5378 21.5312C55.7644 20.8281 55.1745 19.9844 54.7683 19C54.362 18.0156 54.1589 16.9219 54.1589 15.7188V5.18359ZM76.0912 5.18359H85.8764C87.0717 5.18359 88.1108 5.3125 88.9936 5.57031C89.8842 5.82031 90.6225 6.16797 91.2084 6.61328C91.7944 7.05859 92.228 7.58984 92.5092 8.20703C92.7983 8.81641 92.9428 9.47656 92.9428 10.1875C92.9428 11.3516 92.5756 12.3711 91.8412 13.2461C92.685 13.7461 93.3139 14.3945 93.728 15.1914C94.142 15.9883 94.3491 16.8945 94.3491 17.9102C94.3491 18.7617 94.2045 19.5312 93.9155 20.2188C93.6342 20.9062 93.2006 21.4961 92.6147 21.9883C92.0366 22.4727 91.3022 22.8477 90.4116 23.1133C89.5287 23.3711 88.4858 23.5 87.2827 23.5H76.0912V5.18359ZM87.3061 12.2148C87.6264 12.2148 87.9389 12.2266 88.2436 12.25C88.767 11.75 89.0287 11.1797 89.0287 10.5391C89.0287 9.875 88.767 9.36328 88.2436 9.00391C87.728 8.63672 86.9702 8.45312 85.9702 8.45312H79.8061V12.2148H87.3061ZM87.3764 20.2656C88.3764 20.2656 89.1342 20.0508 89.6498 19.6211C90.1733 19.1914 90.435 18.5859 90.435 17.8047C90.435 17.0234 90.1733 16.4141 89.6498 15.9766C89.1342 15.5391 88.3764 15.3203 87.3764 15.3203H79.8061V20.2656H87.3764Z" fill="url(#paint0_linear_5669_2296)"/>
<defs>
<linearGradient id="paint0_linear_5669_2296" x1="0" y1="15" x2="76.5405" y2="15" gradientUnits="userSpaceOnUse">
<stop stop-color="#39BEF7"/>
<stop offset="1" stop-color="#8989F0"/>
</linearGradient>
</defs>
</svg>
